<?xml version="1.0" standalone="no"?><!DOCTYPE svg PUBLIC "-//W3C//DTD SVG 1.1//EN" "http://www.w3.org/Graphics/SVG/1.1/DTD/svg11.dtd"><svg t="1698749510397" class="icon" viewBox="0 0 1024 1024" version="1.1" xmlns="http://www.w3.org/2000/svg" p-id="6511" xmlns:xlink="http://www.w3.org/1999/xlink" width="200" height="200"><path d="M133.12 276.48a20.48 20.48 0 1 0 0 40.96 20.48 20.48 0 1 0 0-40.96z" fill="#EE3E54" p-id="6512"></path><path d="M788.48 122.88a10.24 10.24 0 1 0 0 20.48 10.24 10.24 0 1 0 0-20.48z" fill="#F1BC19" p-id="6513"></path><path d="M512 133.12a378.88 378.88 0 1 0 0 757.76 378.88 378.88 0 1 0 0-757.76z" fill="#FCE0A2" p-id="6514"></path><path d="M849.92 112.64a40.96 40.96 0 1 0 0 81.92 40.96 40.96 0 1 0 0-81.92z" fill="#F1BC19" p-id="6515"></path><path d="M890.88 225.28a20.48 20.48 0 1 0 0 40.96 20.48 20.48 0 1 0 0-40.96z" fill="#EE3E54" p-id="6516"></path><path d="M829.44 757.76a20.48 20.48 0 1 0 0 40.96 20.48 20.48 0 1 0 0-40.96zM153.6 604.16a40.96 40.96 0 1 0 0 81.92 40.96 40.96 0 1 0 0-81.92z" fill="#FBCD59" p-id="6517"></path><path d="M256 870.4a20.48 20.48 0 1 0 0 40.96 20.48 20.48 0 1 0 0-40.96z" fill="#EE3E54" p-id="6518"></path><path d="M189.44 522.24a25.6 25.6 0 1 0 0 51.2 25.6 25.6 0 1 0 0-51.2z" fill="#FFFFFF" p-id="6519"></path><path d="M215.04 675.84a10.24 10.24 0 1 0 0 20.48 10.24 10.24 0 1 0 0-20.48z" fill="#F1BC19" p-id="6520"></path><path d="M819.2 337.92a10.24 10.24 0 1 0 0 20.48 10.24 10.24 0 1 0 0-20.48z" fill="#FFFFFF" p-id="6521"></path><path d="M662.528 560.128h77.824v169.984h-77.824z" fill="#5ABA9E" p-id="6522"></path><path d="M733.184 567.296v155.648h-63.488V567.296h63.488M747.52 552.96h-92.16v184.32h92.16V552.96z" fill="#472B29" p-id="6523"></path><path d="M539.648 447.488h77.824v282.624h-77.824z" fill="#EA5167" p-id="6524"></path><path d="M610.304 454.656v268.288h-63.488V454.656h63.488M624.64 440.32h-92.16v296.96h92.16V440.32z" fill="#472B29" p-id="6525"></path><path d="M416.768 601.088h77.824v129.024h-77.824z" fill="#FCEE21" p-id="6526"></path><path d="M487.424 608.256v114.688h-63.488V608.256h63.488M501.76 593.92h-92.16v143.36h92.16V593.92z" fill="#472B29" p-id="6527"></path><path d="M293.888 498.688h77.824v231.424h-77.824z" fill="#73B2E5" p-id="6528"></path><path d="M364.544 505.856v217.088h-63.488V505.856h63.488M378.88 491.52h-92.16v245.76h92.16V491.52z" fill="#472B29" p-id="6529"></path><path d="M762.88 736.13312h-491.52a7.168 7.168 0 1 1 0-14.336h491.52a7.168 7.168 0 1 1 0 14.336zM456.20224 410.70592l-123.21792-71.87456-58.78784 39.18848-5.67296-8.51968 64.09216-42.73152 122.54208 71.48544 122.95168-102.46144 133.67296 82.25792 69.03808-39.46496 5.07904 8.9088-74.32192 42.45504-132.56704-81.58208z" fill="#472B29" p-id="6530"></path><path d="M573.44 271.36a25.6 25.6 0 1 0 0 51.2 25.6 25.6 0 1 0 0-51.2z" fill="#F1BC19" p-id="6531"></path><path d="M573.44 329.728c-18.0736 0-32.768-14.70464-32.768-32.768s14.70464-32.768 32.768-32.768 32.768 14.70464 32.768 32.768-14.6944 32.768-32.768 32.768z m0-51.2c-10.15808 0-18.432 8.27392-18.432 18.432s8.27392 18.432 18.432 18.432 18.432-8.27392 18.432-18.432-8.27392-18.432-18.432-18.432z" fill="#472B29" p-id="6532"></path><path d="M706.56 353.28a25.6 25.6 0 1 0 0 51.2 25.6 25.6 0 1 0 0-51.2z" fill="#F1BC19" p-id="6533"></path><path d="M706.56 411.648c-18.0736 0-32.768-14.70464-32.768-32.768s14.70464-32.768 32.768-32.768 32.768 14.70464 32.768 32.768-14.6944 32.768-32.768 32.768z m0-51.2c-10.15808 0-18.432 8.27392-18.432 18.432s8.27392 18.432 18.432 18.432 18.432-8.27392 18.432-18.432-8.27392-18.432-18.432-18.432z" fill="#472B29" p-id="6534"></path><path d="M450.56 373.76a25.6 25.6 0 1 0 0 51.2 25.6 25.6 0 1 0 0-51.2z" fill="#F1BC19" p-id="6535"></path><path d="M450.56 432.128c-18.0736 0-32.768-14.70464-32.768-32.768s14.70464-32.768 32.768-32.768 32.768 14.70464 32.768 32.768-14.6944 32.768-32.768 32.768z m0-51.2c-10.15808 0-18.432 8.27392-18.432 18.432s8.27392 18.432 18.432 18.432 18.432-8.27392 18.432-18.432-8.27392-18.432-18.432-18.432z" fill="#472B29" p-id="6536"></path><path d="M332.8 307.2a25.6 25.6 0 1 0 0 51.2 25.6 25.6 0 1 0 0-51.2z" fill="#F1BC19" p-id="6537"></path><path d="M332.8 365.568c-18.0736 0-32.768-14.70464-32.768-32.768s14.70464-32.768 32.768-32.768 32.768 14.70464 32.768 32.768-14.6944 32.768-32.768 32.768z m0-51.2c-10.15808 0-18.432 8.27392-18.432 18.432s8.27392 18.432 18.432 18.432 18.432-8.27392 18.432-18.432-8.27392-18.432-18.432-18.432z" fill="#472B29" p-id="6538"></path></svg>